<svg xmlns="http://www.w3.org/2000/svg" xmlns:xlink="http://www.w3.org/1999/xlink" width="150" zoomAndPan="magnify" viewBox="0 0 112.5 112.499997" height="150" preserveAspectRatio="xMidYMid meet" version="1.0"><defs><g/><clipPath id="6c1a83afe5"><path d="M 7.902344 29.964844 L 20.707031 29.964844 L 20.707031 77.386719 L 7.902344 77.386719 Z M 7.902344 29.964844 " clip-rule="nonzero"/></clipPath><clipPath id="d393701b54"><path d="M 33.53125 42.769531 L 46.335938 42.769531 L 46.335938 77.386719 L 33.53125 77.386719 Z M 33.53125 42.769531 " clip-rule="nonzero"/></clipPath><clipPath id="62db3c57ab"><path d="M 17.035156 42.769531 L 37.492188 42.769531 L 37.492188 55.574219 L 17.035156 55.574219 Z M 17.035156 42.769531 " clip-rule="nonzero"/></clipPath><clipPath id="bfb5ba29c7"><path d="M 7.902344 17.160156 L 20.652344 17.160156 L 20.652344 29.910156 L 7.902344 29.910156 Z M 7.902344 17.160156 " clip-rule="nonzero"/></clipPath><clipPath id="c536501699"><path d="M 33.578125 17.160156 L 46.328125 17.160156 L 46.328125 29.910156 L 33.578125 29.910156 Z M 33.578125 17.160156 " clip-rule="nonzero"/></clipPath><clipPath id="44da3ed0cb"><path d="M 8 77.433594 L 20.734375 77.433594 L 20.734375 90.183594 L 8 90.183594 Z M 8 77.433594 " clip-rule="nonzero"/></clipPath><clipPath id="e68741283f"><path d="M 33.660156 77.570312 L 46.410156 77.570312 L 46.410156 90.320312 L 33.660156 90.320312 Z M 33.660156 77.570312 " clip-rule="nonzero"/></clipPath><clipPath id="006ccbaa01"><path d="M 13.003906 76 L 16.585938 76 L 16.585938 81 L 13.003906 81 Z M 13.003906 76 " clip-rule="nonzero"/></clipPath><clipPath id="dd5a4f05aa"><path d="M 14.269531 76.375 C 16.5625 80.617188 16.21875 80.90625 16.046875 80.960938 C 15.875 81.019531 15.472656 80.734375 15.472656 80.617188 C 15.472656 80.445312 16.277344 79.871094 16.390625 79.929688 C 16.507812 79.988281 16.449219 80.847656 16.277344 80.90625 C 16.105469 80.960938 15.417969 80.5625 15.417969 80.445312 C 15.417969 80.273438 16.277344 79.929688 16.449219 80.042969 C 16.5625 80.160156 16.5625 80.675781 16.449219 80.789062 C 16.335938 80.90625 15.933594 80.960938 15.644531 80.847656 C 15.015625 80.5625 13.925781 78.726562 13.523438 77.808594 C 13.238281 77.175781 13.007812 76.316406 13.179688 76.144531 C 13.351562 75.972656 14.269531 76.375 14.269531 76.375 " clip-rule="nonzero"/></clipPath><clipPath id="a2d70570ac"><path d="M 13.152344 74.929688 L 16 74.929688 L 16 78.734375 L 13.152344 78.734375 Z M 13.152344 74.929688 " clip-rule="nonzero"/></clipPath><clipPath id="30a6a0d4f7"><path d="M 14.269531 75.285156 C 15.761719 78.324219 15.472656 78.609375 15.300781 78.667969 C 15.128906 78.726562 14.84375 78.609375 14.726562 78.382812 C 14.441406 77.921875 14.210938 75.742188 14.554688 75.398438 C 14.785156 75.167969 15.644531 75.285156 15.703125 75.457031 C 15.761719 75.570312 15.417969 76.144531 15.246094 76.144531 C 15.070312 76.144531 14.554688 75.628906 14.554688 75.457031 C 14.554688 75.285156 15.070312 74.941406 15.246094 74.996094 C 15.417969 74.996094 15.589844 75.285156 15.703125 75.570312 C 15.875 76.085938 15.988281 77.636719 15.761719 78.152344 C 15.644531 78.4375 15.300781 78.726562 15.070312 78.667969 C 14.554688 78.554688 13.179688 76.257812 13.179688 75.628906 C 13.179688 75.339844 13.351562 75.113281 13.523438 75.054688 C 13.695312 74.996094 14.269531 75.285156 14.269531 75.285156 " clip-rule="nonzero"/></clipPath><clipPath id="e7f4894149"><path d="M 14.546875 74.460938 L 17.609375 74.460938 L 17.609375 79.835938 L 14.546875 79.835938 Z M 14.546875 74.460938 " clip-rule="nonzero"/></clipPath><clipPath id="ff349025e0"><path d="M 15.589844 74.765625 C 17.308594 78.667969 16.90625 79.011719 16.734375 78.953125 C 16.449219 78.839844 16.046875 77.0625 16.277344 76.773438 C 16.449219 76.601562 17.195312 76.660156 17.308594 76.832031 C 17.425781 76.949219 17.308594 77.464844 17.136719 77.519531 C 16.964844 77.636719 16.335938 77.40625 16.21875 77.234375 C 16.160156 77.0625 16.277344 76.601562 16.449219 76.546875 C 16.621094 76.429688 17.078125 76.546875 17.253906 76.773438 C 17.597656 77.234375 17.597656 79.472656 17.308594 79.699219 C 17.136719 79.816406 16.851562 79.644531 16.621094 79.414062 C 15.988281 78.839844 14.554688 76.085938 14.554688 75.285156 C 14.554688 74.941406 14.671875 74.710938 14.84375 74.59375 C 15.015625 74.480469 15.589844 74.765625 15.589844 74.765625 " clip-rule="nonzero"/></clipPath><clipPath id="42871ce21b"><path d="M 15.746094 74.460938 L 18.296875 74.460938 L 18.296875 79.488281 L 15.746094 79.488281 Z M 15.746094 74.460938 " clip-rule="nonzero"/></clipPath><clipPath id="f483d2e3ac"><path d="M 16.90625 74.824219 C 17.941406 78.839844 17.539062 78.667969 17.367188 78.4375 C 17.078125 78.039062 16.734375 76.429688 17.023438 76.144531 C 17.195312 75.914062 18.113281 76.03125 18.167969 76.203125 C 18.226562 76.316406 17.824219 76.890625 17.652344 76.890625 C 17.480469 76.890625 17.023438 76.375 17.023438 76.203125 C 17.023438 76.03125 17.597656 75.683594 17.769531 75.742188 C 17.941406 75.800781 18.113281 76.03125 18.167969 76.316406 C 18.285156 76.949219 18.054688 79.355469 17.710938 79.414062 C 17.308594 79.472656 15.761719 76.03125 15.816406 75.226562 C 15.816406 74.882812 16.046875 74.59375 16.21875 74.539062 C 16.390625 74.480469 16.90625 74.824219 16.90625 74.824219 " clip-rule="nonzero"/></clipPath><clipPath id="0f7e2f2b27"><path d="M 8.667969 76.003906 L 20.484375 76.003906 L 20.484375 78.796875 L 8.667969 78.796875 Z M 8.667969 76.003906 " clip-rule="nonzero"/></clipPath><clipPath id="21d9d8fd47"><path d="M 9.738281 76.890625 C 11.800781 77.691406 11.574219 77.921875 11.34375 77.980469 C 11 78.09375 10.082031 78.152344 9.910156 77.921875 C 9.738281 77.691406 9.738281 77.121094 10.023438 76.832031 C 10.769531 76.085938 15.53125 76.03125 17.425781 76.375 C 18.6875 76.601562 20.464844 77.347656 20.464844 77.691406 C 20.464844 77.863281 19.777344 78.210938 19.605469 78.152344 C 19.433594 78.09375 19.375 77.292969 19.488281 77.175781 C 19.605469 77.0625 20.464844 77.464844 20.464844 77.636719 C 20.464844 77.863281 19.832031 78.382812 19.433594 78.4375 C 18.914062 78.496094 18.457031 77.691406 17.597656 77.519531 C 15.988281 77.175781 11.230469 78.265625 10.195312 77.980469 C 9.851562 77.863281 9.679688 77.75 9.621094 77.578125 C 9.566406 77.40625 9.738281 76.949219 10.023438 76.832031 C 10.484375 76.601562 11.976562 76.832031 12.375 77.234375 C 12.664062 77.519531 12.835938 78.210938 12.664062 78.4375 C 12.492188 78.726562 11.859375 78.78125 11.34375 78.726562 C 10.65625 78.667969 9.335938 78.265625 8.992188 77.808594 C 8.761719 77.519531 8.707031 76.890625 8.878906 76.773438 C 8.992188 76.660156 9.738281 76.890625 9.738281 76.890625 " clip-rule="nonzero"/></clipPath><clipPath id="8e059d68e3"><path d="M 33.394531 74.640625 L 46.34375 74.640625 L 46.34375 80.933594 L 33.394531 80.933594 Z M 33.394531 74.640625 " clip-rule="nonzero"/></clipPath><clipPath id="43330842bf"><path d="M 34.863281 77.121094 C 34.460938 79.355469 33.886719 79.414062 33.714844 79.242188 C 33.484375 79.011719 33.425781 77.980469 33.601562 77.636719 C 33.714844 77.40625 34.117188 77.175781 34.34375 77.234375 C 34.746094 77.347656 35.433594 79.183594 35.261719 79.527344 C 35.148438 79.757812 34.519531 79.816406 34.34375 79.699219 C 34.117188 79.527344 34.171875 78.898438 34.171875 78.382812 C 34.117188 77.691406 33.945312 76.429688 34.230469 75.972656 C 34.402344 75.683594 34.804688 75.457031 35.035156 75.570312 C 35.550781 75.800781 36.523438 79.757812 36.125 80.160156 C 35.953125 80.332031 35.320312 80.273438 35.089844 79.988281 C 34.691406 79.527344 35.035156 77.347656 35.089844 76.601562 C 35.089844 76.257812 35.035156 75.972656 35.207031 75.800781 C 35.378906 75.570312 35.894531 75.339844 36.179688 75.511719 C 36.699219 75.800781 37.441406 78.265625 37.214844 78.953125 C 37.097656 79.355469 36.46875 79.757812 36.296875 79.644531 C 36.007812 79.527344 36.007812 77.519531 36.296875 77.0625 C 36.46875 76.773438 36.984375 76.488281 37.214844 76.601562 C 37.613281 76.773438 38.015625 78.554688 38.015625 79.300781 C 38.015625 79.757812 37.84375 80.445312 37.613281 80.503906 C 37.441406 80.5625 37.042969 80.21875 36.925781 79.929688 C 36.753906 79.414062 36.984375 78.09375 37.214844 77.519531 C 37.386719 77.175781 37.671875 76.71875 37.902344 76.773438 C 38.304688 76.890625 39.164062 79.472656 39.050781 80.160156 C 38.992188 80.503906 38.648438 80.847656 38.476562 80.847656 C 38.304688 80.847656 38.015625 80.617188 37.902344 80.332031 C 37.671875 79.871094 37.789062 78.839844 37.902344 78.039062 C 38.015625 77.0625 38.359375 74.941406 38.761719 74.824219 C 38.933594 74.765625 39.164062 74.941406 39.335938 75.226562 C 39.738281 75.914062 40.425781 78.898438 40.140625 79.644531 C 40.023438 79.988281 39.679688 80.160156 39.449219 80.160156 C 39.277344 80.160156 39.050781 79.988281 38.992188 79.699219 C 38.761719 78.953125 39.507812 74.941406 40.023438 74.765625 C 40.3125 74.710938 40.941406 75.511719 41.171875 76.03125 C 41.402344 76.546875 41.457031 77.40625 41.402344 77.863281 C 41.34375 78.152344 41.34375 78.382812 41.171875 78.496094 C 41 78.609375 40.597656 78.554688 40.425781 78.382812 C 40.140625 78.039062 40.082031 76.601562 40.3125 76.144531 C 40.425781 75.855469 40.769531 75.683594 40.941406 75.683594 C 41.113281 75.683594 41.34375 75.972656 41.457031 76.257812 C 41.6875 76.832031 42.03125 78.554688 41.800781 79.011719 C 41.6875 79.300781 41.230469 79.527344 41.058594 79.414062 C 40.769531 79.300781 40.710938 78.039062 40.828125 77.347656 C 40.941406 76.601562 41.457031 75.226562 41.800781 75.113281 C 41.972656 75.054688 42.261719 75.226562 42.433594 75.511719 C 42.777344 76.085938 43.179688 78.265625 42.890625 78.898438 C 42.71875 79.242188 42.203125 79.585938 42.03125 79.527344 C 41.800781 79.414062 41.746094 78.667969 41.859375 78.152344 C 41.972656 77.464844 42.664062 75.800781 43.0625 75.800781 C 43.464844 75.800781 44.441406 77.863281 44.269531 78.382812 C 44.152344 78.726562 43.464844 79.070312 43.292969 78.953125 C 43.0625 78.78125 43.410156 76.890625 43.808594 76.429688 C 44.039062 76.144531 44.613281 75.972656 44.84375 76.085938 C 45.128906 76.257812 45.417969 77.75 45.242188 77.921875 C 45.128906 78.039062 44.671875 77.863281 44.671875 77.75 C 44.671875 77.636719 45.472656 77.0625 45.761719 77.121094 C 45.988281 77.175781 46.332031 77.691406 46.277344 77.863281 C 46.21875 78.039062 45.359375 78.152344 45.242188 78.039062 C 45.128906 77.921875 45.472656 77.121094 45.589844 77.121094 C 45.761719 77.121094 46.21875 78.039062 46.105469 78.152344 C 45.988281 78.265625 45.242188 78.09375 45.1875 77.921875 C 45.128906 77.75 45.472656 77.175781 45.644531 77.121094 C 45.816406 77.121094 46.332031 77.636719 46.277344 77.691406 C 46.277344 77.75 45.761719 77.40625 45.589844 77.519531 C 45.359375 77.636719 45.300781 78.496094 45.070312 78.667969 C 44.898438 78.78125 44.554688 78.78125 44.382812 78.667969 C 44.097656 78.4375 43.980469 76.949219 44.152344 76.832031 C 44.269531 76.773438 44.726562 76.949219 44.785156 77.121094 C 44.898438 77.40625 44.554688 78.382812 44.269531 78.667969 C 44.039062 78.898438 43.523438 79.128906 43.292969 78.953125 C 42.890625 78.667969 42.835938 75.914062 43.0625 75.800781 C 43.179688 75.742188 43.695312 76.085938 43.753906 76.429688 C 43.925781 77.003906 43.238281 78.953125 42.777344 79.355469 C 42.546875 79.527344 42.261719 79.644531 42.03125 79.527344 C 41.574219 79.242188 41.113281 76.03125 41.34375 75.457031 C 41.457031 75.226562 41.628906 75.113281 41.800781 75.113281 C 42.03125 75.113281 42.320312 75.457031 42.433594 75.800781 C 42.605469 76.429688 42.203125 78.496094 41.800781 79.011719 C 41.574219 79.300781 41.285156 79.527344 41.058594 79.414062 C 40.65625 79.242188 40.082031 76.71875 40.3125 76.144531 C 40.425781 75.855469 40.769531 75.683594 40.941406 75.683594 C 41.113281 75.683594 41.34375 75.972656 41.457031 76.257812 C 41.628906 76.660156 41.6875 77.808594 41.402344 78.152344 C 41.230469 78.382812 40.65625 78.554688 40.425781 78.382812 C 39.96875 78.039062 39.738281 74.941406 40.023438 74.765625 C 40.195312 74.652344 40.65625 74.941406 40.828125 75.285156 C 41.113281 75.914062 40.769531 77.921875 40.425781 78.78125 C 40.195312 79.355469 39.738281 80.21875 39.449219 80.160156 C 38.933594 80.042969 37.960938 76.085938 38.1875 75.339844 C 38.304688 75.054688 38.589844 74.824219 38.761719 74.824219 C 38.933594 74.824219 39.222656 75.167969 39.335938 75.511719 C 39.621094 76.375 39.449219 79.757812 39.050781 80.445312 C 38.878906 80.734375 38.648438 80.90625 38.476562 80.847656 C 38.132812 80.734375 37.613281 78.898438 37.5 78.324219 C 37.441406 78.039062 37.386719 77.75 37.5 77.636719 C 37.613281 77.519531 38.1875 77.519531 38.359375 77.691406 C 38.648438 78.039062 38.359375 79.988281 37.960938 80.273438 C 37.730469 80.445312 37.214844 80.332031 36.984375 80.101562 C 36.523438 79.644531 36.125 77.636719 36.296875 77.0625 C 36.410156 76.773438 36.8125 76.429688 36.984375 76.488281 C 37.328125 76.601562 37.5 79.300781 37.269531 79.871094 C 37.15625 80.101562 36.984375 80.332031 36.8125 80.332031 C 36.582031 80.332031 36.296875 79.757812 36.066406 79.300781 C 35.722656 78.554688 35.035156 76.488281 35.320312 76.257812 C 35.492188 76.144531 36.066406 76.316406 36.238281 76.601562 C 36.582031 77.121094 36.640625 79.414062 36.238281 79.871094 C 36.007812 80.160156 35.433594 80.273438 35.148438 80.101562 C 34.574219 79.757812 33.945312 76.773438 34.230469 76.085938 C 34.34375 75.742188 34.863281 75.457031 35.035156 75.570312 C 35.433594 75.742188 35.609375 78.953125 35.261719 79.527344 C 35.089844 79.816406 34.632812 79.871094 34.460938 79.816406 C 34.230469 79.757812 34.171875 79.300781 34.058594 79.011719 C 33.886719 78.609375 33.484375 77.921875 33.601562 77.636719 C 33.714844 77.40625 34.171875 77.121094 34.34375 77.234375 C 34.632812 77.347656 34.917969 78.839844 34.691406 79.128906 C 34.519531 79.355469 33.886719 79.414062 33.714844 79.242188 C 33.425781 78.953125 33.542969 77.0625 33.828125 76.660156 C 34 76.429688 34.289062 76.316406 34.460938 76.375 C 34.632812 76.429688 34.863281 77.121094 34.863281 77.121094 " clip-rule="nonzero"/></clipPath><clipPath id="f335272de7"><path d="M 8.191406 29.386719 L 20.640625 29.386719 L 20.640625 31.300781 L 8.191406 31.300781 Z M 8.191406 29.386719 " clip-rule="nonzero"/></clipPath><clipPath id="95be83ab1b"><path d="M 8.820312 29.566406 C 20.292969 29.511719 20.464844 29.625 20.523438 29.796875 C 20.578125 29.96875 20.234375 30.484375 20.0625 30.542969 C 19.890625 30.601562 19.375 30.253906 19.375 30.082031 C 19.375 29.910156 19.890625 29.394531 20.0625 29.394531 C 20.234375 29.394531 20.578125 29.96875 20.523438 30.140625 C 20.347656 30.484375 19.03125 30.601562 17.882812 30.714844 C 15.761719 30.945312 9.796875 31.289062 8.707031 30.714844 C 8.359375 30.542969 8.246094 30.253906 8.246094 30.082031 C 8.246094 29.910156 8.820312 29.566406 8.820312 29.566406 " clip-rule="nonzero"/></clipPath><clipPath id="01a6290de1"><path d="M 8.121094 76.488281 L 9.402344 76.488281 L 9.402344 77.980469 L 8.121094 77.980469 Z M 8.121094 76.488281 " clip-rule="nonzero"/></clipPath><clipPath id="2db39d688b"><path d="M 9.335938 77.292969 C 8.359375 77.808594 8.304688 77.0625 8.417969 76.949219 C 8.53125 76.832031 9.394531 77.234375 9.394531 77.40625 C 9.394531 77.578125 8.820312 77.980469 8.589844 77.921875 C 8.417969 77.863281 8.132812 77.464844 8.132812 77.234375 C 8.132812 77.003906 8.417969 76.601562 8.589844 76.546875 C 8.761719 76.488281 9.277344 76.773438 9.277344 76.773438 " clip-rule="nonzero"/></clipPath><clipPath id="c1f4a4c28f"><path d="M 7.78125 76.367188 L 8.945312 76.367188 L 8.945312 77.542969 L 7.78125 77.542969 Z M 7.78125 76.367188 " clip-rule="nonzero"/></clipPath><clipPath id="3a069571a1"><path d="M 8.933594 76.773438 C 8.476562 77.519531 8.015625 77.40625 7.902344 77.234375 C 7.789062 77.0625 7.902344 76.601562 8.074219 76.488281 C 8.246094 76.375 8.820312 76.546875 8.820312 76.546875 " clip-rule="nonzero"/></clipPath><clipPath id="52676724cc"><path d="M 7.78125 76.828125 L 8.945312 76.828125 L 8.945312 78 L 7.78125 78 Z M 7.78125 76.828125 " clip-rule="nonzero"/></clipPath><clipPath id="22a2528fdb"><path d="M 8.933594 77.234375 C 8.476562 77.980469 8.015625 77.863281 7.902344 77.691406 C 7.789062 77.519531 7.902344 77.0625 8.074219 76.949219 C 8.246094 76.832031 8.820312 77.003906 8.820312 77.003906 " clip-rule="nonzero"/></clipPath><clipPath id="60513fdcd8"><path d="M 19.539062 77.226562 L 20.703125 77.226562 L 20.703125 78.402344 L 19.539062 78.402344 Z M 19.539062 77.226562 " clip-rule="nonzero"/></clipPath><clipPath id="a79115d931"><path d="M 20.695312 77.636719 C 20.175781 78.382812 19.777344 78.265625 19.660156 78.09375 C 19.546875 77.921875 19.605469 77.464844 19.777344 77.347656 C 19.949219 77.234375 20.523438 77.40625 20.523438 77.40625 " clip-rule="nonzero"/></clipPath><clipPath id="5e65d01a4c"><path d="M 19.46875 76.546875 L 20.757812 76.546875 L 20.757812 78 L 19.46875 78 Z M 19.46875 76.546875 " clip-rule="nonzero"/></clipPath><clipPath id="af3839374b"><path d="M 20.75 77.292969 C 19.949219 77.980469 19.605469 77.292969 19.660156 77.121094 C 19.71875 76.949219 20.523438 76.890625 20.636719 77.0625 C 20.75 77.234375 20.523438 77.921875 20.347656 77.980469 C 20.175781 78.039062 19.605469 77.636719 19.546875 77.40625 C 19.488281 77.175781 19.777344 76.660156 20.003906 76.601562 C 20.175781 76.546875 20.636719 76.890625 20.636719 76.890625 " clip-rule="nonzero"/></clipPath></defs><g clip-path="url(#6c1a83afe5)"><path fill="#000000" d="M 7.902344 29.964844 L 20.707031 29.964844 L 20.707031 77.386719 L 7.902344 77.386719 Z M 7.902344 29.964844 " fill-opacity="1" fill-rule="nonzero"/></g><g clip-path="url(#d393701b54)"><path fill="#000000" d="M 33.53125 42.769531 L 46.335938 42.769531 L 46.335938 77.386719 L 33.53125 77.386719 Z M 33.53125 42.769531 " fill-opacity="1" fill-rule="nonzero"/></g><g clip-path="url(#62db3c57ab)"><path fill="#000000" d="M 37.492188 42.769531 L 37.492188 55.574219 L 17.035156 55.574219 L 17.035156 42.769531 Z M 37.492188 42.769531 " fill-opacity="1" fill-rule="nonzero"/></g><g fill="#000000" fill-opacity="1"><g transform="translate(50.311318, 68.698849)"><g><path d="M 8.53125 -11.4375 L 8.53125 -9.265625 L 3.609375 -9.265625 L 3.609375 0 L 1.21875 0 L 1.21875 -21.421875 L 9.734375 -21.421875 L 9.734375 -19.25 L 3.609375 -19.25 L 3.609375 -11.4375 Z M 8.53125 -11.4375 "/></g></g></g><g fill="#000000" fill-opacity="1"><g transform="translate(60.711721, 68.698849)"><g><path d="M 6 -21.421875 C 7.6875 -21.421875 8.898438 -21 9.640625 -20.15625 C 10.390625 -19.320312 10.765625 -18.109375 10.765625 -16.515625 L 10.765625 -14.78125 C 10.765625 -13.59375 10.550781 -12.628906 10.125 -11.890625 C 9.695312 -11.160156 9.023438 -10.65625 8.109375 -10.375 C 9.085938 -10.082031 9.78125 -9.550781 10.1875 -8.78125 C 10.59375 -8.019531 10.796875 -7.0625 10.796875 -5.90625 L 10.796875 -2.5625 C 10.796875 -2.09375 10.816406 -1.640625 10.859375 -1.203125 C 10.898438 -0.765625 11.023438 -0.363281 11.234375 0 L 8.8125 0 C 8.664062 -0.300781 8.5625 -0.628906 8.5 -0.984375 C 8.4375 -1.347656 8.40625 -1.882812 8.40625 -2.59375 L 8.40625 -5.96875 C 8.40625 -7.164062 8.132812 -7.992188 7.59375 -8.453125 C 7.0625 -8.910156 6.296875 -9.140625 5.296875 -9.140625 L 3.609375 -9.140625 L 3.609375 0 L 1.21875 0 L 1.21875 -21.421875 Z M 5.390625 -11.3125 C 6.347656 -11.3125 7.085938 -11.507812 7.609375 -11.90625 C 8.140625 -12.3125 8.40625 -13.09375 8.40625 -14.25 L 8.40625 -16.3125 C 8.40625 -17.289062 8.21875 -18.023438 7.84375 -18.515625 C 7.46875 -19.003906 6.832031 -19.25 5.9375 -19.25 L 3.609375 -19.25 L 3.609375 -11.3125 Z M 5.390625 -11.3125 "/></g></g></g><g fill="#000000" fill-opacity="1"><g transform="translate(72.763953, 68.698849)"><g><path d="M 1.046875 -16.25 C 1.046875 -17.894531 1.445312 -19.203125 2.25 -20.171875 C 3.050781 -21.140625 4.28125 -21.625 5.9375 -21.625 C 7.582031 -21.625 8.8125 -21.140625 9.625 -20.171875 C 10.445312 -19.203125 10.859375 -17.894531 10.859375 -16.25 L 10.859375 -5.171875 C 10.859375 -3.535156 10.445312 -2.226562 9.625 -1.25 C 8.8125 -0.269531 7.582031 0.21875 5.9375 0.21875 C 4.28125 0.21875 3.050781 -0.269531 2.25 -1.25 C 1.445312 -2.226562 1.046875 -3.535156 1.046875 -5.171875 Z M 3.390625 -5.046875 C 3.390625 -4.066406 3.597656 -3.304688 4.015625 -2.765625 C 4.441406 -2.222656 5.082031 -1.953125 5.9375 -1.953125 C 6.8125 -1.953125 7.453125 -2.222656 7.859375 -2.765625 C 8.265625 -3.304688 8.46875 -4.066406 8.46875 -5.046875 L 8.46875 -16.375 C 8.46875 -17.351562 8.265625 -18.109375 7.859375 -18.640625 C 7.453125 -19.179688 6.8125 -19.453125 5.9375 -19.453125 C 5.082031 -19.453125 4.441406 -19.179688 4.015625 -18.640625 C 3.597656 -18.109375 3.390625 -17.351562 3.390625 -16.375 Z M 3.390625 -5.046875 "/></g></g></g><g fill="#000000" fill-opacity="1"><g transform="translate(84.663243, 68.698849)"><g><path d="M 3.328125 0 L 1.1875 0 L 1.1875 -21.421875 L 4.21875 -21.421875 L 9.171875 -5.9375 L 9.171875 -21.421875 L 11.28125 -21.421875 L 11.28125 0 L 8.8125 0 L 3.328125 -17.3125 Z M 3.328125 0 "/></g></g></g><g fill="#000000" fill-opacity="1"><g transform="translate(97.17432, 68.698849)"><g><path d="M 4.34375 0 L 4.34375 -19.25 L 0.390625 -19.25 L 0.390625 -21.421875 L 10.671875 -21.421875 L 10.671875 -19.25 L 6.734375 -19.25 L 6.734375 0 Z M 4.34375 0 "/></g></g></g><g clip-path="url(#bfb5ba29c7)"><path fill="#000000" d="M 7.902344 29.898438 L 20.652344 17.175781 L 20.652344 29.898438 Z M 7.902344 29.898438 " fill-opacity="1" fill-rule="nonzero"/></g><g clip-path="url(#c536501699)"><path fill="#000000" d="M 33.589844 17.160156 L 46.316406 29.910156 L 33.589844 29.910156 Z M 33.589844 17.160156 " fill-opacity="1" fill-rule="nonzero"/></g><g clip-path="url(#44da3ed0cb)"><path fill="#000000" d="M 20.722656 90.183594 L 8 77.4375 L 20.722656 77.4375 Z M 20.722656 90.183594 " fill-opacity="1" fill-rule="nonzero"/></g><g clip-path="url(#e68741283f)"><path fill="#000000" d="M 46.410156 77.582031 L 33.664062 90.304688 L 33.664062 77.582031 Z M 46.410156 77.582031 " fill-opacity="1" fill-rule="nonzero"/></g><g clip-path="url(#006ccbaa01)"><g clip-path="url(#dd5a4f05aa)"><path fill="#000000" d="M 10.886719 73.851562 L 18.859375 73.851562 L 18.859375 83.257812 L 10.886719 83.257812 Z M 10.886719 73.851562 " fill-opacity="1" fill-rule="nonzero"/></g></g><g clip-path="url(#a2d70570ac)"><g clip-path="url(#30a6a0d4f7)"><path fill="#000000" d="M 10.886719 72.703125 L 18.054688 72.703125 L 18.054688 80.960938 L 10.886719 80.960938 Z M 10.886719 72.703125 " fill-opacity="1" fill-rule="nonzero"/></g></g><g clip-path="url(#e7f4894149)"><g clip-path="url(#ff349025e0)"><path fill="#000000" d="M 12.261719 72.300781 L 19.660156 72.300781 L 19.660156 81.996094 L 12.261719 81.996094 Z M 12.261719 72.300781 " fill-opacity="1" fill-rule="nonzero"/></g></g><g clip-path="url(#42871ce21b)"><g clip-path="url(#f483d2e3ac)"><path fill="#000000" d="M 13.523438 72.242188 L 20.464844 72.242188 L 20.464844 81.707031 L 13.523438 81.707031 Z M 13.523438 72.242188 " fill-opacity="1" fill-rule="nonzero"/></g></g><g clip-path="url(#0f7e2f2b27)"><g clip-path="url(#21d9d8fd47)"><path fill="#000000" d="M 6.582031 74.078125 L 22.757812 74.078125 L 22.757812 81.019531 L 6.582031 81.019531 Z M 6.582031 74.078125 " fill-opacity="1" fill-rule="nonzero"/></g></g><g clip-path="url(#8e059d68e3)"><g clip-path="url(#43330842bf)"><path fill="#000000" d="M 31.304688 72.472656 L 48.570312 72.472656 L 48.570312 83.140625 L 31.304688 83.140625 Z M 31.304688 72.472656 " fill-opacity="1" fill-rule="nonzero"/></g></g><g clip-path="url(#f335272de7)"><g clip-path="url(#95be83ab1b)"><path fill="#000000" d="M 5.953125 27.101562 L 22.816406 27.101562 L 22.816406 33.007812 L 5.953125 33.007812 Z M 5.953125 27.101562 " fill-opacity="1" fill-rule="nonzero"/></g></g><g clip-path="url(#01a6290de1)"><g clip-path="url(#2db39d688b)"><path fill="#000000" d="M 5.835938 74.25 L 11.6875 74.25 L 11.6875 80.21875 L 5.835938 80.21875 Z M 5.835938 74.25 " fill-opacity="1" fill-rule="nonzero"/></g></g><g clip-path="url(#c1f4a4c28f)"><g clip-path="url(#3a069571a1)"><path fill="#000000" d="M 5.609375 74.195312 L 11.230469 74.195312 L 11.230469 79.757812 L 5.609375 79.757812 Z M 5.609375 74.195312 " fill-opacity="1" fill-rule="nonzero"/></g></g><g clip-path="url(#52676724cc)"><g clip-path="url(#22a2528fdb)"><path fill="#000000" d="M 5.609375 74.652344 L 11.230469 74.652344 L 11.230469 80.21875 L 5.609375 80.21875 Z M 5.609375 74.652344 " fill-opacity="1" fill-rule="nonzero"/></g></g><g clip-path="url(#60513fdcd8)"><g clip-path="url(#a79115d931)"><path fill="#000000" d="M 17.367188 75.054688 L 22.988281 75.054688 L 22.988281 80.617188 L 17.367188 80.617188 Z M 17.367188 75.054688 " fill-opacity="1" fill-rule="nonzero"/></g></g><g clip-path="url(#5e65d01a4c)"><g clip-path="url(#af3839374b)"><path fill="#000000" d="M 17.253906 74.308594 L 23.046875 74.308594 L 23.046875 80.273438 L 17.253906 80.273438 Z M 17.253906 74.308594 " fill-opacity="1" fill-rule="nonzero"/></g></g></svg>