<svg xmlns="http://www.w3.org/2000/svg" xmlns:xlink="http://www.w3.org/1999/xlink" width="50" zoomAndPan="magnify" viewBox="0 0 37.5 37.499999" height="50" preserveAspectRatio="xMidYMid meet" version="1.0"><defs><g/><clipPath id="42b239d6c7"><path d="M 2.632812 9.988281 L 6.902344 9.988281 L 6.902344 25.796875 L 2.632812 25.796875 Z M 2.632812 9.988281 " clip-rule="nonzero"/></clipPath><clipPath id="f824941031"><path d="M 11.175781 14.257812 L 15.445312 14.257812 L 15.445312 25.796875 L 11.175781 25.796875 Z M 11.175781 14.257812 " clip-rule="nonzero"/></clipPath><clipPath id="e26639a4b6"><path d="M 5.675781 14.253906 L 12.492188 14.253906 L 12.492188 18.519531 L 5.675781 18.519531 Z M 5.675781 14.253906 " clip-rule="nonzero"/></clipPath><clipPath id="01d14d4925"><path d="M 2.632812 5.71875 L 7.132812 5.71875 L 7.132812 10.21875 L 2.632812 10.21875 Z M 2.632812 5.71875 " clip-rule="nonzero"/></clipPath><clipPath id="f94fd8cea2"><path d="M 10.941406 5.71875 L 15.441406 5.71875 L 15.441406 10.21875 L 10.941406 10.21875 Z M 10.941406 5.71875 " clip-rule="nonzero"/></clipPath><clipPath id="8135de1e02"><path d="M 2.664062 25.558594 L 7.164062 25.558594 L 7.164062 30.058594 L 2.664062 30.058594 Z M 2.664062 25.558594 " clip-rule="nonzero"/></clipPath><clipPath id="7ad5a90e5c"><path d="M 10.96875 25.601562 L 15.46875 25.601562 L 15.46875 30.101562 L 10.96875 30.101562 Z M 10.96875 25.601562 " clip-rule="nonzero"/></clipPath><clipPath id="4205166472"><path d="M 4.335938 25.316406 L 5.527344 25.316406 L 5.527344 27 L 4.335938 27 Z M 4.335938 25.316406 " clip-rule="nonzero"/></clipPath><clipPath id="487fcec068"><path d="M 4.757812 25.457031 C 5.519531 26.871094 5.40625 26.96875 5.347656 26.988281 C 5.292969 27.007812 5.15625 26.910156 5.15625 26.871094 C 5.15625 26.816406 5.425781 26.625 5.464844 26.644531 C 5.503906 26.664062 5.484375 26.949219 5.425781 26.96875 C 5.367188 26.988281 5.140625 26.855469 5.140625 26.816406 C 5.140625 26.757812 5.425781 26.644531 5.484375 26.679688 C 5.519531 26.71875 5.519531 26.890625 5.484375 26.929688 C 5.445312 26.96875 5.3125 26.988281 5.214844 26.949219 C 5.003906 26.855469 4.640625 26.242188 4.507812 25.9375 C 4.414062 25.726562 4.335938 25.4375 4.394531 25.382812 C 4.449219 25.324219 4.757812 25.457031 4.757812 25.457031 " clip-rule="nonzero"/></clipPath><clipPath id="e39ef2efd7"><path d="M 4.382812 24.976562 L 5.335938 24.976562 L 5.335938 26.246094 L 4.382812 26.246094 Z M 4.382812 24.976562 " clip-rule="nonzero"/></clipPath><clipPath id="95ec01ae28"><path d="M 4.757812 25.09375 C 5.253906 26.109375 5.15625 26.203125 5.101562 26.222656 C 5.042969 26.242188 4.949219 26.203125 4.910156 26.128906 C 4.8125 25.972656 4.738281 25.246094 4.851562 25.132812 C 4.929688 25.054688 5.214844 25.09375 5.234375 25.152344 C 5.253906 25.191406 5.140625 25.382812 5.082031 25.382812 C 5.023438 25.382812 4.851562 25.210938 4.851562 25.152344 C 4.851562 25.09375 5.023438 24.980469 5.082031 25 C 5.140625 25 5.195312 25.09375 5.234375 25.191406 C 5.292969 25.363281 5.328125 25.878906 5.253906 26.050781 C 5.214844 26.144531 5.101562 26.242188 5.023438 26.222656 C 4.851562 26.183594 4.394531 25.417969 4.394531 25.210938 C 4.394531 25.113281 4.449219 25.039062 4.507812 25.019531 C 4.566406 25 4.757812 25.09375 4.757812 25.09375 " clip-rule="nonzero"/></clipPath><clipPath id="f4fdf8a33d"><path d="M 4.847656 24.820312 L 5.871094 24.820312 L 5.871094 26.613281 L 4.847656 26.613281 Z M 4.847656 24.820312 " clip-rule="nonzero"/></clipPath><clipPath id="53cc40783c"><path d="M 5.195312 24.921875 C 5.769531 26.222656 5.636719 26.335938 5.578125 26.316406 C 5.484375 26.28125 5.347656 25.6875 5.425781 25.589844 C 5.484375 25.535156 5.730469 25.554688 5.769531 25.609375 C 5.808594 25.648438 5.769531 25.820312 5.710938 25.839844 C 5.65625 25.878906 5.445312 25.800781 5.40625 25.746094 C 5.386719 25.6875 5.425781 25.535156 5.484375 25.515625 C 5.539062 25.476562 5.691406 25.515625 5.75 25.589844 C 5.867188 25.746094 5.867188 26.492188 5.769531 26.566406 C 5.710938 26.605469 5.617188 26.546875 5.539062 26.472656 C 5.328125 26.28125 4.851562 25.363281 4.851562 25.09375 C 4.851562 24.980469 4.890625 24.902344 4.949219 24.863281 C 5.003906 24.828125 5.195312 24.921875 5.195312 24.921875 " clip-rule="nonzero"/></clipPath><clipPath id="8bbae94157"><path d="M 5.25 24.820312 L 6.097656 24.820312 L 6.097656 26.496094 L 5.25 26.496094 Z M 5.25 24.820312 " clip-rule="nonzero"/></clipPath><clipPath id="42fd1bb027"><path d="M 5.636719 24.941406 C 5.980469 26.28125 5.847656 26.222656 5.789062 26.144531 C 5.691406 26.011719 5.578125 25.476562 5.675781 25.382812 C 5.730469 25.304688 6.039062 25.34375 6.054688 25.402344 C 6.074219 25.4375 5.941406 25.628906 5.882812 25.628906 C 5.828125 25.628906 5.675781 25.457031 5.675781 25.402344 C 5.675781 25.34375 5.867188 25.226562 5.921875 25.246094 C 5.980469 25.265625 6.039062 25.34375 6.054688 25.4375 C 6.09375 25.648438 6.019531 26.453125 5.902344 26.472656 C 5.769531 26.492188 5.253906 25.34375 5.273438 25.074219 C 5.273438 24.960938 5.347656 24.863281 5.40625 24.847656 C 5.464844 24.828125 5.636719 24.941406 5.636719 24.941406 " clip-rule="nonzero"/></clipPath><clipPath id="2abee948b8"><path d="M 2.890625 25.335938 L 6.828125 25.335938 L 6.828125 26.265625 L 2.890625 26.265625 Z M 2.890625 25.335938 " clip-rule="nonzero"/></clipPath><clipPath id="af0897f5dc"><path d="M 3.246094 25.628906 C 3.933594 25.898438 3.859375 25.972656 3.78125 25.992188 C 3.667969 26.03125 3.359375 26.050781 3.304688 25.972656 C 3.246094 25.898438 3.246094 25.707031 3.339844 25.609375 C 3.589844 25.363281 5.175781 25.34375 5.808594 25.457031 C 6.230469 25.535156 6.820312 25.78125 6.820312 25.898438 C 6.820312 25.953125 6.59375 26.070312 6.535156 26.050781 C 6.476562 26.03125 6.457031 25.765625 6.496094 25.726562 C 6.535156 25.6875 6.820312 25.820312 6.820312 25.878906 C 6.820312 25.953125 6.609375 26.128906 6.476562 26.144531 C 6.304688 26.164062 6.152344 25.898438 5.867188 25.839844 C 5.328125 25.726562 3.742188 26.089844 3.398438 25.992188 C 3.285156 25.953125 3.226562 25.917969 3.207031 25.859375 C 3.1875 25.800781 3.246094 25.648438 3.339844 25.609375 C 3.496094 25.535156 3.992188 25.609375 4.125 25.746094 C 4.222656 25.839844 4.277344 26.070312 4.222656 26.144531 C 4.164062 26.242188 3.953125 26.261719 3.78125 26.242188 C 3.550781 26.222656 3.113281 26.089844 2.996094 25.9375 C 2.921875 25.839844 2.902344 25.628906 2.960938 25.589844 C 2.996094 25.554688 3.246094 25.628906 3.246094 25.628906 " clip-rule="nonzero"/></clipPath><clipPath id="7e429e2dd4"><path d="M 11.132812 24.878906 L 15.449219 24.878906 L 15.449219 26.976562 L 11.132812 26.976562 Z M 11.132812 24.878906 " clip-rule="nonzero"/></clipPath><clipPath id="e7b6ed2bff"><path d="M 11.621094 25.707031 C 11.488281 26.453125 11.296875 26.472656 11.238281 26.414062 C 11.160156 26.335938 11.140625 25.992188 11.199219 25.878906 C 11.238281 25.800781 11.371094 25.726562 11.449219 25.746094 C 11.582031 25.78125 11.8125 26.394531 11.753906 26.507812 C 11.714844 26.585938 11.503906 26.605469 11.449219 26.566406 C 11.371094 26.507812 11.390625 26.300781 11.390625 26.128906 C 11.371094 25.898438 11.316406 25.476562 11.410156 25.324219 C 11.46875 25.226562 11.601562 25.152344 11.679688 25.191406 C 11.851562 25.265625 12.175781 26.585938 12.042969 26.71875 C 11.984375 26.777344 11.773438 26.757812 11.695312 26.664062 C 11.5625 26.507812 11.679688 25.78125 11.695312 25.535156 C 11.695312 25.417969 11.679688 25.324219 11.734375 25.265625 C 11.792969 25.191406 11.964844 25.113281 12.058594 25.171875 C 12.234375 25.265625 12.480469 26.089844 12.40625 26.316406 C 12.367188 26.453125 12.15625 26.585938 12.097656 26.546875 C 12.003906 26.507812 12.003906 25.839844 12.097656 25.6875 C 12.15625 25.589844 12.328125 25.496094 12.40625 25.535156 C 12.539062 25.589844 12.671875 26.183594 12.671875 26.433594 C 12.671875 26.585938 12.613281 26.816406 12.539062 26.835938 C 12.480469 26.855469 12.347656 26.738281 12.308594 26.644531 C 12.25 26.472656 12.328125 26.03125 12.40625 25.839844 C 12.460938 25.726562 12.558594 25.574219 12.632812 25.589844 C 12.769531 25.628906 13.054688 26.492188 13.015625 26.71875 C 12.996094 26.835938 12.882812 26.949219 12.824219 26.949219 C 12.769531 26.949219 12.671875 26.871094 12.632812 26.777344 C 12.558594 26.625 12.597656 26.28125 12.632812 26.011719 C 12.671875 25.6875 12.785156 24.980469 12.921875 24.941406 C 12.976562 24.921875 13.054688 24.980469 13.113281 25.074219 C 13.246094 25.304688 13.476562 26.300781 13.378906 26.546875 C 13.339844 26.664062 13.226562 26.71875 13.148438 26.71875 C 13.09375 26.71875 13.015625 26.664062 12.996094 26.566406 C 12.921875 26.316406 13.167969 24.980469 13.339844 24.921875 C 13.4375 24.902344 13.648438 25.171875 13.722656 25.34375 C 13.800781 25.515625 13.820312 25.800781 13.800781 25.953125 C 13.78125 26.050781 13.78125 26.128906 13.722656 26.164062 C 13.667969 26.203125 13.53125 26.183594 13.476562 26.128906 C 13.378906 26.011719 13.359375 25.535156 13.4375 25.382812 C 13.476562 25.285156 13.589844 25.226562 13.648438 25.226562 C 13.703125 25.226562 13.78125 25.324219 13.820312 25.417969 C 13.894531 25.609375 14.011719 26.183594 13.933594 26.335938 C 13.894531 26.433594 13.742188 26.507812 13.6875 26.472656 C 13.589844 26.433594 13.570312 26.011719 13.609375 25.78125 C 13.648438 25.535156 13.820312 25.074219 13.933594 25.039062 C 13.992188 25.019531 14.085938 25.074219 14.144531 25.171875 C 14.257812 25.363281 14.394531 26.089844 14.296875 26.300781 C 14.238281 26.414062 14.066406 26.527344 14.011719 26.507812 C 13.933594 26.472656 13.914062 26.222656 13.953125 26.050781 C 13.992188 25.820312 14.222656 25.265625 14.355469 25.265625 C 14.488281 25.265625 14.8125 25.953125 14.757812 26.128906 C 14.71875 26.242188 14.488281 26.355469 14.429688 26.316406 C 14.355469 26.261719 14.46875 25.628906 14.601562 25.476562 C 14.679688 25.382812 14.871094 25.324219 14.949219 25.363281 C 15.042969 25.417969 15.140625 25.917969 15.082031 25.972656 C 15.042969 26.011719 14.890625 25.953125 14.890625 25.917969 C 14.890625 25.878906 15.15625 25.6875 15.253906 25.707031 C 15.328125 25.726562 15.445312 25.898438 15.425781 25.953125 C 15.40625 26.011719 15.121094 26.050781 15.082031 26.011719 C 15.042969 25.972656 15.15625 25.707031 15.195312 25.707031 C 15.253906 25.707031 15.40625 26.011719 15.367188 26.050781 C 15.328125 26.089844 15.082031 26.03125 15.0625 25.972656 C 15.042969 25.917969 15.15625 25.726562 15.214844 25.707031 C 15.273438 25.707031 15.445312 25.878906 15.425781 25.898438 C 15.425781 25.917969 15.253906 25.800781 15.195312 25.839844 C 15.121094 25.878906 15.101562 26.164062 15.023438 26.222656 C 14.964844 26.261719 14.851562 26.261719 14.792969 26.222656 C 14.699219 26.144531 14.660156 25.648438 14.71875 25.609375 C 14.757812 25.589844 14.910156 25.648438 14.929688 25.707031 C 14.964844 25.800781 14.851562 26.128906 14.757812 26.222656 C 14.679688 26.300781 14.507812 26.375 14.429688 26.316406 C 14.296875 26.222656 14.277344 25.304688 14.355469 25.265625 C 14.394531 25.246094 14.566406 25.363281 14.585938 25.476562 C 14.640625 25.667969 14.414062 26.316406 14.257812 26.453125 C 14.183594 26.507812 14.085938 26.546875 14.011719 26.507812 C 13.859375 26.414062 13.703125 25.34375 13.78125 25.152344 C 13.820312 25.074219 13.875 25.039062 13.933594 25.039062 C 14.011719 25.039062 14.105469 25.152344 14.144531 25.265625 C 14.203125 25.476562 14.066406 26.164062 13.933594 26.335938 C 13.859375 26.433594 13.761719 26.507812 13.6875 26.472656 C 13.550781 26.414062 13.359375 25.574219 13.4375 25.382812 C 13.476562 25.285156 13.589844 25.226562 13.648438 25.226562 C 13.703125 25.226562 13.78125 25.324219 13.820312 25.417969 C 13.875 25.554688 13.894531 25.9375 13.800781 26.050781 C 13.742188 26.128906 13.550781 26.183594 13.476562 26.128906 C 13.324219 26.011719 13.246094 24.980469 13.339844 24.921875 C 13.398438 24.882812 13.550781 24.980469 13.609375 25.09375 C 13.703125 25.304688 13.589844 25.972656 13.476562 26.261719 C 13.398438 26.453125 13.246094 26.738281 13.148438 26.71875 C 12.976562 26.679688 12.652344 25.363281 12.730469 25.113281 C 12.769531 25.019531 12.863281 24.941406 12.921875 24.941406 C 12.976562 24.941406 13.074219 25.054688 13.113281 25.171875 C 13.207031 25.457031 13.148438 26.585938 13.015625 26.816406 C 12.960938 26.910156 12.882812 26.96875 12.824219 26.949219 C 12.710938 26.910156 12.539062 26.300781 12.5 26.109375 C 12.480469 26.011719 12.460938 25.917969 12.5 25.878906 C 12.539062 25.839844 12.730469 25.839844 12.785156 25.898438 C 12.882812 26.011719 12.785156 26.664062 12.652344 26.757812 C 12.578125 26.816406 12.40625 26.777344 12.328125 26.699219 C 12.175781 26.546875 12.042969 25.878906 12.097656 25.6875 C 12.136719 25.589844 12.269531 25.476562 12.328125 25.496094 C 12.441406 25.535156 12.5 26.433594 12.421875 26.625 C 12.386719 26.699219 12.328125 26.777344 12.269531 26.777344 C 12.195312 26.777344 12.097656 26.585938 12.023438 26.433594 C 11.90625 26.183594 11.679688 25.496094 11.773438 25.417969 C 11.832031 25.382812 12.023438 25.4375 12.078125 25.535156 C 12.195312 25.707031 12.214844 26.472656 12.078125 26.625 C 12.003906 26.71875 11.8125 26.757812 11.714844 26.699219 C 11.523438 26.585938 11.316406 25.589844 11.410156 25.363281 C 11.449219 25.246094 11.621094 25.152344 11.679688 25.191406 C 11.8125 25.246094 11.871094 26.316406 11.753906 26.507812 C 11.695312 26.605469 11.542969 26.625 11.488281 26.605469 C 11.410156 26.585938 11.390625 26.433594 11.351562 26.335938 C 11.296875 26.203125 11.160156 25.972656 11.199219 25.878906 C 11.238281 25.800781 11.390625 25.707031 11.449219 25.746094 C 11.542969 25.78125 11.640625 26.28125 11.5625 26.375 C 11.503906 26.453125 11.296875 26.472656 11.238281 26.414062 C 11.140625 26.316406 11.179688 25.6875 11.277344 25.554688 C 11.332031 25.476562 11.429688 25.4375 11.488281 25.457031 C 11.542969 25.476562 11.621094 25.707031 11.621094 25.707031 " clip-rule="nonzero"/></clipPath><clipPath id="37797ee7f2"><path d="M 2.730469 9.796875 L 6.878906 9.796875 L 6.878906 10.433594 L 2.730469 10.433594 Z M 2.730469 9.796875 " clip-rule="nonzero"/></clipPath><clipPath id="1bd27d3ac7"><path d="M 2.941406 9.855469 C 6.765625 9.835938 6.820312 9.875 6.839844 9.933594 C 6.859375 9.988281 6.746094 10.160156 6.6875 10.179688 C 6.628906 10.199219 6.457031 10.085938 6.457031 10.027344 C 6.457031 9.96875 6.628906 9.796875 6.6875 9.796875 C 6.746094 9.796875 6.859375 9.988281 6.839844 10.046875 C 6.78125 10.160156 6.34375 10.199219 5.960938 10.238281 C 5.253906 10.316406 3.265625 10.429688 2.902344 10.238281 C 2.785156 10.179688 2.75 10.085938 2.75 10.027344 C 2.75 9.96875 2.941406 9.855469 2.941406 9.855469 " clip-rule="nonzero"/></clipPath><clipPath id="9179b0687e"><path d="M 2.707031 25.496094 L 3.132812 25.496094 L 3.132812 25.992188 L 2.707031 25.992188 Z M 2.707031 25.496094 " clip-rule="nonzero"/></clipPath><clipPath id="7683c1fc54"><path d="M 3.113281 25.765625 C 2.785156 25.9375 2.769531 25.6875 2.804688 25.648438 C 2.84375 25.609375 3.132812 25.746094 3.132812 25.800781 C 3.132812 25.859375 2.941406 25.992188 2.863281 25.972656 C 2.804688 25.953125 2.710938 25.820312 2.710938 25.746094 C 2.710938 25.667969 2.804688 25.535156 2.863281 25.515625 C 2.921875 25.496094 3.09375 25.589844 3.09375 25.589844 " clip-rule="nonzero"/></clipPath><clipPath id="699988f863"><path d="M 2.59375 25.457031 L 2.980469 25.457031 L 2.980469 25.847656 L 2.59375 25.847656 Z M 2.59375 25.457031 " clip-rule="nonzero"/></clipPath><clipPath id="ec8e7cb59b"><path d="M 2.976562 25.589844 C 2.824219 25.839844 2.671875 25.800781 2.632812 25.746094 C 2.597656 25.6875 2.632812 25.535156 2.691406 25.496094 C 2.75 25.457031 2.941406 25.515625 2.941406 25.515625 " clip-rule="nonzero"/></clipPath><clipPath id="7b8223e7b6"><path d="M 2.59375 25.609375 L 2.980469 25.609375 L 2.980469 26 L 2.59375 26 Z M 2.59375 25.609375 " clip-rule="nonzero"/></clipPath><clipPath id="10db24b89a"><path d="M 2.976562 25.746094 C 2.824219 25.992188 2.671875 25.953125 2.632812 25.898438 C 2.597656 25.839844 2.632812 25.6875 2.691406 25.648438 C 2.75 25.609375 2.941406 25.667969 2.941406 25.667969 " clip-rule="nonzero"/></clipPath><clipPath id="fa817f4f57"><path d="M 6.511719 25.742188 L 6.902344 25.742188 L 6.902344 26.132812 L 6.511719 26.132812 Z M 6.511719 25.742188 " clip-rule="nonzero"/></clipPath><clipPath id="ae902c6644"><path d="M 6.898438 25.878906 C 6.726562 26.128906 6.59375 26.089844 6.554688 26.03125 C 6.515625 25.972656 6.535156 25.820312 6.59375 25.78125 C 6.648438 25.746094 6.839844 25.800781 6.839844 25.800781 " clip-rule="nonzero"/></clipPath><clipPath id="5390a39aa0"><path d="M 6.488281 25.515625 L 6.917969 25.515625 L 6.917969 26 L 6.488281 26 Z M 6.488281 25.515625 " clip-rule="nonzero"/></clipPath><clipPath id="cc28255220"><path d="M 6.917969 25.765625 C 6.648438 25.992188 6.535156 25.765625 6.554688 25.707031 C 6.574219 25.648438 6.839844 25.628906 6.878906 25.6875 C 6.917969 25.746094 6.839844 25.972656 6.78125 25.992188 C 6.726562 26.011719 6.535156 25.878906 6.515625 25.800781 C 6.496094 25.726562 6.59375 25.554688 6.667969 25.535156 C 6.726562 25.515625 6.878906 25.628906 6.878906 25.628906 " clip-rule="nonzero"/></clipPath></defs><g clip-path="url(#42b239d6c7)"><path fill="#000000" d="M 2.632812 9.988281 L 6.902344 9.988281 L 6.902344 25.796875 L 2.632812 25.796875 Z M 2.632812 9.988281 " fill-opacity="1" fill-rule="nonzero"/></g><g clip-path="url(#f824941031)"><path fill="#000000" d="M 11.175781 14.257812 L 15.445312 14.257812 L 15.445312 25.796875 L 11.175781 25.796875 Z M 11.175781 14.257812 " fill-opacity="1" fill-rule="nonzero"/></g><g clip-path="url(#e26639a4b6)"><path fill="#000000" d="M 12.492188 14.253906 L 12.492188 18.519531 L 5.675781 18.519531 L 5.675781 14.253906 Z M 12.492188 14.253906 " fill-opacity="1" fill-rule="nonzero"/></g><g fill="#000000" fill-opacity="1"><g transform="translate(16.770439, 22.899615)"><g><path d="M 2.84375 -3.8125 L 2.84375 -3.09375 L 1.203125 -3.09375 L 1.203125 0 L 0.40625 0 L 0.40625 -7.140625 L 3.25 -7.140625 L 3.25 -6.421875 L 1.203125 -6.421875 L 1.203125 -3.8125 Z M 2.84375 -3.8125 "/></g></g></g><g fill="#000000" fill-opacity="1"><g transform="translate(20.23724, 22.899615)"><g><path d="M 2 -7.140625 C 2.5625 -7.140625 2.96875 -7 3.21875 -6.71875 C 3.46875 -6.445312 3.59375 -6.046875 3.59375 -5.515625 L 3.59375 -4.921875 C 3.59375 -4.535156 3.519531 -4.21875 3.375 -3.96875 C 3.226562 -3.726562 3.003906 -3.554688 2.703125 -3.453125 C 3.023438 -3.359375 3.253906 -3.179688 3.390625 -2.921875 C 3.535156 -2.671875 3.609375 -2.351562 3.609375 -1.96875 L 3.609375 -0.859375 C 3.609375 -0.703125 3.613281 -0.550781 3.625 -0.40625 C 3.632812 -0.257812 3.675781 -0.125 3.75 0 L 2.9375 0 C 2.882812 -0.101562 2.847656 -0.210938 2.828125 -0.328125 C 2.816406 -0.453125 2.8125 -0.632812 2.8125 -0.875 L 2.8125 -1.984375 C 2.8125 -2.390625 2.71875 -2.664062 2.53125 -2.8125 C 2.351562 -2.96875 2.097656 -3.046875 1.765625 -3.046875 L 1.203125 -3.046875 L 1.203125 0 L 0.40625 0 L 0.40625 -7.140625 Z M 1.796875 -3.78125 C 2.117188 -3.78125 2.367188 -3.84375 2.546875 -3.96875 C 2.722656 -4.101562 2.8125 -4.363281 2.8125 -4.75 L 2.8125 -5.4375 C 2.8125 -5.757812 2.742188 -6.003906 2.609375 -6.171875 C 2.484375 -6.335938 2.273438 -6.421875 1.984375 -6.421875 L 1.203125 -6.421875 L 1.203125 -3.78125 Z M 1.796875 -3.78125 "/></g></g></g><g fill="#000000" fill-opacity="1"><g transform="translate(24.254651, 22.899615)"><g><path d="M 0.34375 -5.421875 C 0.34375 -5.972656 0.476562 -6.410156 0.75 -6.734375 C 1.019531 -7.054688 1.429688 -7.21875 1.984375 -7.21875 C 2.535156 -7.21875 2.945312 -7.054688 3.21875 -6.734375 C 3.488281 -6.410156 3.625 -5.972656 3.625 -5.421875 L 3.625 -1.71875 C 3.625 -1.175781 3.488281 -0.738281 3.21875 -0.40625 C 2.945312 -0.0820312 2.535156 0.078125 1.984375 0.078125 C 1.429688 0.078125 1.019531 -0.0820312 0.75 -0.40625 C 0.476562 -0.738281 0.34375 -1.175781 0.34375 -1.71875 Z M 1.125 -1.6875 C 1.125 -1.351562 1.191406 -1.097656 1.328125 -0.921875 C 1.472656 -0.742188 1.691406 -0.65625 1.984375 -0.65625 C 2.273438 -0.65625 2.488281 -0.742188 2.625 -0.921875 C 2.757812 -1.097656 2.828125 -1.351562 2.828125 -1.6875 L 2.828125 -5.453125 C 2.828125 -5.785156 2.757812 -6.039062 2.625 -6.21875 C 2.488281 -6.394531 2.273438 -6.484375 1.984375 -6.484375 C 1.691406 -6.484375 1.472656 -6.394531 1.328125 -6.21875 C 1.191406 -6.039062 1.125 -5.785156 1.125 -5.453125 Z M 1.125 -1.6875 "/></g></g></g><g fill="#000000" fill-opacity="1"><g transform="translate(28.221081, 22.899615)"><g><path d="M 1.109375 0 L 0.390625 0 L 0.390625 -7.140625 L 1.40625 -7.140625 L 3.0625 -1.984375 L 3.0625 -7.140625 L 3.765625 -7.140625 L 3.765625 0 L 2.9375 0 L 1.109375 -5.78125 Z M 1.109375 0 "/></g></g></g><g fill="#000000" fill-opacity="1"><g transform="translate(32.39144, 22.899615)"><g><path d="M 1.453125 0 L 1.453125 -6.421875 L 0.125 -6.421875 L 0.125 -7.140625 L 3.5625 -7.140625 L 3.5625 -6.421875 L 2.25 -6.421875 L 2.25 0 Z M 1.453125 0 "/></g></g></g><g clip-path="url(#01d14d4925)"><path fill="#000000" d="M 2.632812 10.21875 L 7.132812 5.722656 L 7.132812 10.21875 Z M 2.632812 10.21875 " fill-opacity="1" fill-rule="nonzero"/></g><g clip-path="url(#f94fd8cea2)"><path fill="#000000" d="M 10.941406 5.71875 L 15.4375 10.21875 L 10.941406 10.21875 Z M 10.941406 5.71875 " fill-opacity="1" fill-rule="nonzero"/></g><g clip-path="url(#8135de1e02)"><path fill="#000000" d="M 7.160156 30.058594 L 2.667969 25.558594 L 7.160156 25.558594 Z M 7.160156 30.058594 " fill-opacity="1" fill-rule="nonzero"/></g><g clip-path="url(#7ad5a90e5c)"><path fill="#000000" d="M 15.46875 25.605469 L 10.972656 30.097656 L 10.972656 25.605469 Z M 15.46875 25.605469 " fill-opacity="1" fill-rule="nonzero"/></g><g clip-path="url(#4205166472)"><g clip-path="url(#487fcec068)"><path fill="#000000" d="M 3.628906 24.617188 L 6.285156 24.617188 L 6.285156 27.753906 L 3.628906 27.753906 Z M 3.628906 24.617188 " fill-opacity="1" fill-rule="nonzero"/></g></g><g clip-path="url(#e39ef2efd7)"><g clip-path="url(#95ec01ae28)"><path fill="#000000" d="M 3.628906 24.234375 L 6.019531 24.234375 L 6.019531 26.988281 L 3.628906 26.988281 Z M 3.628906 24.234375 " fill-opacity="1" fill-rule="nonzero"/></g></g><g clip-path="url(#f4fdf8a33d)"><g clip-path="url(#53cc40783c)"><path fill="#000000" d="M 4.085938 24.101562 L 6.554688 24.101562 L 6.554688 27.332031 L 4.085938 27.332031 Z M 4.085938 24.101562 " fill-opacity="1" fill-rule="nonzero"/></g></g><g clip-path="url(#8bbae94157)"><g clip-path="url(#42fd1bb027)"><path fill="#000000" d="M 4.507812 24.082031 L 6.820312 24.082031 L 6.820312 27.234375 L 4.507812 27.234375 Z M 4.507812 24.082031 " fill-opacity="1" fill-rule="nonzero"/></g></g><g clip-path="url(#2abee948b8)"><g clip-path="url(#af0897f5dc)"><path fill="#000000" d="M 2.195312 24.691406 L 7.585938 24.691406 L 7.585938 27.007812 L 2.195312 27.007812 Z M 2.195312 24.691406 " fill-opacity="1" fill-rule="nonzero"/></g></g><g clip-path="url(#7e429e2dd4)"><g clip-path="url(#e7b6ed2bff)"><path fill="#000000" d="M 10.433594 24.15625 L 16.191406 24.15625 L 16.191406 27.714844 L 10.433594 27.714844 Z M 10.433594 24.15625 " fill-opacity="1" fill-rule="nonzero"/></g></g><g clip-path="url(#37797ee7f2)"><g clip-path="url(#1bd27d3ac7)"><path fill="#000000" d="M 1.984375 9.035156 L 7.605469 9.035156 L 7.605469 11.003906 L 1.984375 11.003906 Z M 1.984375 9.035156 " fill-opacity="1" fill-rule="nonzero"/></g></g><g clip-path="url(#9179b0687e)"><g clip-path="url(#7683c1fc54)"><path fill="#000000" d="M 1.945312 24.75 L 3.894531 24.75 L 3.894531 26.738281 L 1.945312 26.738281 Z M 1.945312 24.75 " fill-opacity="1" fill-rule="nonzero"/></g></g><g clip-path="url(#699988f863)"><g clip-path="url(#ec8e7cb59b)"><path fill="#000000" d="M 1.871094 24.730469 L 3.742188 24.730469 L 3.742188 26.585938 L 1.871094 26.585938 Z M 1.871094 24.730469 " fill-opacity="1" fill-rule="nonzero"/></g></g><g clip-path="url(#7b8223e7b6)"><g clip-path="url(#10db24b89a)"><path fill="#000000" d="M 1.871094 24.882812 L 3.742188 24.882812 L 3.742188 26.738281 L 1.871094 26.738281 Z M 1.871094 24.882812 " fill-opacity="1" fill-rule="nonzero"/></g></g><g clip-path="url(#fa817f4f57)"><g clip-path="url(#ae902c6644)"><path fill="#000000" d="M 5.789062 25.019531 L 7.664062 25.019531 L 7.664062 26.871094 L 5.789062 26.871094 Z M 5.789062 25.019531 " fill-opacity="1" fill-rule="nonzero"/></g></g><g clip-path="url(#5390a39aa0)"><g clip-path="url(#cc28255220)"><path fill="#000000" d="M 5.75 24.769531 L 7.683594 24.769531 L 7.683594 26.757812 L 5.75 26.757812 Z M 5.75 24.769531 " fill-opacity="1" fill-rule="nonzero"/></g></g></svg>