<svg xmlns="http://www.w3.org/2000/svg" xmlns:xlink="http://www.w3.org/1999/xlink" width="500" zoomAndPan="magnify" viewBox="0 0 375 374.999991" height="500" preserveAspectRatio="xMidYMid meet" version="1.0"><defs><g/><clipPath id="ee9659bc3b"><path d="M 26.339844 99.882812 L 69.023438 99.882812 L 69.023438 257.960938 L 26.339844 257.960938 Z M 26.339844 99.882812 " clip-rule="nonzero"/></clipPath><clipPath id="810fe26900"><path d="M 111.777344 142.566406 L 154.457031 142.566406 L 154.457031 257.960938 L 111.777344 257.960938 Z M 111.777344 142.566406 " clip-rule="nonzero"/></clipPath><clipPath id="1bf3648c4f"><path d="M 56.808594 142.5625 L 124.996094 142.5625 L 124.996094 185.246094 L 56.808594 185.246094 Z M 56.808594 142.5625 " clip-rule="nonzero"/></clipPath><clipPath id="e9978fe61d"><path d="M 26.339844 57.203125 L 69.089844 57.203125 L 69.089844 99.203125 L 26.339844 99.203125 Z M 26.339844 57.203125 " clip-rule="nonzero"/></clipPath><clipPath id="c416be777e"><path d="M 112.453125 57.199219 L 154.453125 57.199219 L 154.453125 99.949219 L 112.453125 99.949219 Z M 112.453125 57.199219 " clip-rule="nonzero"/></clipPath><clipPath id="6b31484659"><path d="M 26.617188 257.886719 L 68.617188 257.886719 L 68.617188 300.636719 L 26.617188 300.636719 Z M 26.617188 257.886719 " clip-rule="nonzero"/></clipPath><clipPath id="27c4139895"><path d="M 111.976562 259.082031 L 154.726562 259.082031 L 154.726562 301.082031 L 111.976562 301.082031 Z M 111.976562 259.082031 " clip-rule="nonzero"/></clipPath><clipPath id="68b38b90b0"><path d="M 43.34375 253.148438 L 55.28125 253.148438 L 55.28125 270 L 43.34375 270 Z M 43.34375 253.148438 " clip-rule="nonzero"/></clipPath><clipPath id="22516f3648"><path d="M 47.5625 254.578125 C 55.210938 268.726562 54.066406 269.683594 53.492188 269.875 C 52.917969 270.066406 51.578125 269.109375 51.578125 268.726562 C 51.578125 268.15625 54.257812 266.242188 54.636719 266.433594 C 55.019531 266.625 54.828125 269.492188 54.257812 269.683594 C 53.683594 269.875 51.386719 268.535156 51.386719 268.15625 C 51.386719 267.582031 54.257812 266.433594 54.828125 266.816406 C 55.210938 267.199219 55.210938 268.917969 54.828125 269.300781 C 54.449219 269.683594 53.109375 269.875 52.152344 269.492188 C 50.050781 268.535156 46.417969 262.417969 45.078125 259.359375 C 44.121094 257.253906 43.359375 254.386719 43.929688 253.8125 C 44.503906 253.242188 47.5625 254.578125 47.5625 254.578125 " clip-rule="nonzero"/></clipPath><clipPath id="b308dcf6b6"><path d="M 43.84375 249.761719 L 53 249.761719 L 53 262.453125 L 43.84375 262.453125 Z M 43.84375 249.761719 " clip-rule="nonzero"/></clipPath><clipPath id="1a1ca4b399"><path d="M 47.5625 250.945312 C 52.535156 261.078125 51.578125 262.035156 51.003906 262.226562 C 50.433594 262.417969 49.476562 262.035156 49.09375 261.269531 C 48.136719 259.742188 47.371094 252.476562 48.519531 251.328125 C 49.285156 250.5625 52.152344 250.945312 52.34375 251.519531 C 52.535156 251.902344 51.386719 253.8125 50.8125 253.8125 C 50.242188 253.8125 48.519531 252.09375 48.519531 251.519531 C 48.519531 250.945312 50.242188 249.796875 50.8125 249.988281 C 51.386719 249.988281 51.960938 250.945312 52.34375 251.902344 C 52.917969 253.621094 53.300781 258.785156 52.535156 260.507812 C 52.152344 261.460938 51.003906 262.417969 50.242188 262.226562 C 48.519531 261.84375 43.929688 254.195312 43.929688 252.09375 C 43.929688 251.136719 44.503906 250.371094 45.078125 250.179688 C 45.652344 249.988281 47.5625 250.945312 47.5625 250.945312 " clip-rule="nonzero"/></clipPath><clipPath id="0fd0552b26"><path d="M 48.484375 248.199219 L 58.695312 248.199219 L 58.695312 266 L 48.484375 266 Z M 48.484375 248.199219 " clip-rule="nonzero"/></clipPath><clipPath id="18bca4e40d"><path d="M 51.960938 249.226562 C 57.699219 262.226562 56.359375 263.375 55.785156 263.183594 C 54.828125 262.800781 53.492188 256.875 54.257812 255.917969 C 54.828125 255.34375 57.316406 255.535156 57.699219 256.109375 C 58.082031 256.492188 57.699219 258.210938 57.125 258.402344 C 56.550781 258.785156 54.449219 258.019531 54.066406 257.445312 C 53.875 256.875 54.257812 255.34375 54.828125 255.152344 C 55.402344 254.769531 56.933594 255.152344 57.507812 255.917969 C 58.652344 257.445312 58.652344 264.902344 57.699219 265.667969 C 57.125 266.050781 56.167969 265.476562 55.402344 264.710938 C 53.300781 262.800781 48.519531 253.621094 48.519531 250.945312 C 48.519531 249.796875 48.902344 249.035156 49.476562 248.652344 C 50.050781 248.269531 51.960938 249.226562 51.960938 249.226562 " clip-rule="nonzero"/></clipPath><clipPath id="bc866733dc"><path d="M 52.488281 248.207031 L 60.984375 248.207031 L 60.984375 264.964844 L 52.488281 264.964844 Z M 52.488281 248.207031 " clip-rule="nonzero"/></clipPath><clipPath id="2f98495adf"><path d="M 56.359375 249.417969 C 59.800781 262.800781 58.460938 262.226562 57.890625 261.460938 C 56.933594 260.125 55.785156 254.769531 56.742188 253.8125 C 57.316406 253.050781 60.375 253.433594 60.566406 254.003906 C 60.757812 254.386719 59.417969 256.300781 58.84375 256.300781 C 58.269531 256.300781 56.742188 254.578125 56.742188 254.003906 C 56.742188 253.433594 58.652344 252.285156 59.226562 252.476562 C 59.800781 252.667969 60.375 253.433594 60.566406 254.386719 C 60.949219 256.492188 60.183594 264.519531 59.035156 264.710938 C 57.699219 264.902344 52.535156 253.433594 52.726562 250.753906 C 52.726562 249.609375 53.492188 248.652344 54.066406 248.460938 C 54.636719 248.269531 56.359375 249.417969 56.359375 249.417969 " clip-rule="nonzero"/></clipPath><clipPath id="d8951c7498"><path d="M 29 253.347656 L 68.28125 253.347656 L 68.28125 262.65625 L 29 262.65625 Z M 29 253.347656 " clip-rule="nonzero"/></clipPath><clipPath id="6189c7d3f1"><path d="M 32.457031 256.300781 C 39.34375 258.976562 38.578125 259.742188 37.8125 259.933594 C 36.664062 260.316406 33.605469 260.507812 33.03125 259.742188 C 32.457031 258.976562 32.457031 257.066406 33.414062 256.109375 C 35.902344 253.621094 51.769531 253.433594 58.082031 254.578125 C 62.285156 255.34375 68.214844 257.828125 68.214844 258.976562 C 68.214844 259.550781 65.917969 260.699219 65.347656 260.507812 C 64.773438 260.316406 64.582031 257.636719 64.964844 257.253906 C 65.347656 256.875 68.214844 258.210938 68.214844 258.785156 C 68.214844 259.550781 66.109375 261.269531 64.773438 261.460938 C 63.050781 261.652344 61.523438 258.976562 58.652344 258.402344 C 53.300781 257.253906 37.429688 260.886719 33.988281 259.933594 C 32.839844 259.550781 32.269531 259.167969 32.078125 258.59375 C 31.886719 258.019531 32.457031 256.492188 33.414062 256.109375 C 34.945312 255.34375 39.914062 256.109375 41.253906 257.445312 C 42.210938 258.402344 42.785156 260.699219 42.210938 261.460938 C 41.636719 262.417969 39.535156 262.609375 37.8125 262.417969 C 35.519531 262.226562 31.121094 260.886719 29.972656 259.359375 C 29.207031 258.402344 29.015625 256.300781 29.589844 255.917969 C 29.972656 255.535156 32.457031 256.300781 32.457031 256.300781 " clip-rule="nonzero"/></clipPath><clipPath id="d04e929eb3"><path d="M 111.320312 249 L 154.484375 249 L 154.484375 269.777344 L 111.320312 269.777344 Z M 111.320312 249 " clip-rule="nonzero"/></clipPath><clipPath id="7fb2d373d9"><path d="M 116.207031 257.066406 C 114.867188 264.519531 112.957031 264.710938 112.382812 264.140625 C 111.617188 263.375 111.425781 259.933594 112 258.785156 C 112.382812 258.019531 113.71875 257.253906 114.484375 257.445312 C 115.824219 257.828125 118.117188 263.949219 117.542969 265.09375 C 117.160156 265.859375 115.058594 266.050781 114.484375 265.667969 C 113.71875 265.09375 113.910156 262.992188 113.910156 261.269531 C 113.71875 258.976562 113.148438 254.769531 114.101562 253.242188 C 114.675781 252.285156 116.015625 251.519531 116.78125 251.902344 C 118.5 252.667969 121.75 265.859375 120.414062 267.199219 C 119.839844 267.773438 117.734375 267.582031 116.96875 266.625 C 115.632812 265.09375 116.78125 257.828125 116.96875 255.34375 C 116.96875 254.195312 116.78125 253.242188 117.351562 252.667969 C 117.925781 251.902344 119.648438 251.136719 120.601562 251.710938 C 122.324219 252.667969 124.808594 260.886719 124.046875 263.183594 C 123.664062 264.519531 121.558594 265.859375 120.984375 265.476562 C 120.03125 265.09375 120.03125 258.402344 120.984375 256.875 C 121.558594 255.917969 123.28125 254.960938 124.046875 255.34375 C 125.382812 255.917969 126.722656 261.84375 126.722656 264.332031 C 126.722656 265.859375 126.148438 268.152344 125.382812 268.34375 C 124.808594 268.535156 123.472656 267.390625 123.089844 266.433594 C 122.515625 264.710938 123.28125 260.316406 124.046875 258.402344 C 124.617188 257.253906 125.574219 255.726562 126.339844 255.917969 C 127.679688 256.300781 130.546875 264.902344 130.164062 267.199219 C 129.972656 268.34375 128.824219 269.492188 128.25 269.492188 C 127.679688 269.492188 126.722656 268.726562 126.339844 267.773438 C 125.574219 266.242188 125.957031 262.800781 126.339844 260.125 C 126.722656 256.875 127.871094 249.796875 129.207031 249.417969 C 129.78125 249.226562 130.546875 249.796875 131.121094 250.753906 C 132.457031 253.050781 134.753906 262.992188 133.796875 265.476562 C 133.414062 266.625 132.265625 267.199219 131.503906 267.199219 C 130.929688 267.199219 130.164062 266.625 129.972656 265.667969 C 129.207031 263.183594 131.691406 249.796875 133.414062 249.226562 C 134.371094 249.035156 136.472656 251.710938 137.238281 253.433594 C 138.003906 255.152344 138.195312 258.019531 138.003906 259.550781 C 137.8125 260.507812 137.8125 261.269531 137.238281 261.652344 C 136.664062 262.035156 135.324219 261.84375 134.753906 261.269531 C 133.796875 260.125 133.605469 255.34375 134.371094 253.8125 C 134.753906 252.859375 135.898438 252.285156 136.472656 252.285156 C 137.046875 252.285156 137.8125 253.242188 138.195312 254.195312 C 138.957031 256.109375 140.105469 261.84375 139.339844 263.375 C 138.957031 264.332031 137.429688 265.09375 136.855469 264.710938 C 135.898438 264.332031 135.707031 260.125 136.089844 257.828125 C 136.472656 255.34375 138.195312 250.753906 139.339844 250.371094 C 139.914062 250.179688 140.871094 250.753906 141.445312 251.710938 C 142.59375 253.621094 143.929688 260.886719 142.972656 262.992188 C 142.402344 264.140625 140.679688 265.285156 140.105469 265.09375 C 139.339844 264.710938 139.148438 262.226562 139.53125 260.507812 C 139.914062 258.210938 142.210938 252.667969 143.546875 252.667969 C 144.886719 252.667969 148.136719 259.550781 147.5625 261.269531 C 147.179688 262.417969 144.886719 263.566406 144.3125 263.183594 C 143.546875 262.609375 144.695312 256.300781 146.035156 254.769531 C 146.796875 253.8125 148.710938 253.242188 149.476562 253.621094 C 150.429688 254.195312 151.386719 259.167969 150.8125 259.742188 C 150.429688 260.125 148.902344 259.550781 148.902344 259.167969 C 148.902344 258.785156 151.578125 256.875 152.535156 257.066406 C 153.300781 257.253906 154.445312 258.976562 154.253906 259.550781 C 154.0625 260.125 151.195312 260.507812 150.8125 260.125 C 150.429688 259.742188 151.578125 257.066406 151.960938 257.066406 C 152.535156 257.066406 154.0625 260.125 153.679688 260.507812 C 153.300781 260.886719 150.8125 260.316406 150.621094 259.742188 C 150.429688 259.167969 151.578125 257.253906 152.152344 257.066406 C 152.726562 257.066406 154.445312 258.785156 154.253906 258.976562 C 154.253906 259.167969 152.535156 258.019531 151.960938 258.402344 C 151.195312 258.785156 151.003906 261.652344 150.238281 262.226562 C 149.667969 262.609375 148.519531 262.609375 147.945312 262.226562 C 146.988281 261.460938 146.605469 256.492188 147.179688 256.109375 C 147.5625 255.917969 149.09375 256.492188 149.285156 257.066406 C 149.667969 258.019531 148.519531 261.269531 147.5625 262.226562 C 146.796875 262.992188 145.078125 263.757812 144.3125 263.183594 C 142.972656 262.226562 142.78125 253.050781 143.546875 252.667969 C 143.929688 252.476562 145.652344 253.621094 145.84375 254.769531 C 146.414062 256.683594 144.121094 263.183594 142.59375 264.519531 C 141.828125 265.09375 140.871094 265.476562 140.105469 265.09375 C 138.578125 264.140625 137.046875 253.433594 137.8125 251.519531 C 138.195312 250.753906 138.769531 250.371094 139.339844 250.371094 C 140.105469 250.371094 141.0625 251.519531 141.445312 252.667969 C 142.019531 254.769531 140.679688 261.652344 139.339844 263.375 C 138.578125 264.332031 137.621094 265.09375 136.855469 264.710938 C 135.515625 264.140625 133.605469 255.726562 134.371094 253.8125 C 134.753906 252.859375 135.898438 252.285156 136.472656 252.285156 C 137.046875 252.285156 137.8125 253.242188 138.195312 254.195312 C 138.769531 255.535156 138.957031 259.359375 138.003906 260.507812 C 137.429688 261.269531 135.515625 261.84375 134.753906 261.269531 C 133.222656 260.125 132.457031 249.796875 133.414062 249.226562 C 133.988281 248.84375 135.515625 249.796875 136.089844 250.945312 C 137.046875 253.050781 135.898438 259.742188 134.753906 262.609375 C 133.988281 264.519531 132.457031 267.390625 131.503906 267.199219 C 129.78125 266.816406 126.53125 253.621094 127.296875 251.136719 C 127.679688 250.179688 128.632812 249.417969 129.207031 249.417969 C 129.78125 249.417969 130.738281 250.5625 131.121094 251.710938 C 132.074219 254.578125 131.503906 265.859375 130.164062 268.152344 C 129.589844 269.109375 128.824219 269.683594 128.25 269.492188 C 127.105469 269.109375 125.382812 262.992188 125 261.078125 C 124.808594 260.125 124.617188 259.167969 125 258.785156 C 125.382812 258.402344 127.296875 258.402344 127.871094 258.976562 C 128.824219 260.125 127.871094 266.625 126.53125 267.582031 C 125.765625 268.152344 124.046875 267.773438 123.28125 267.007812 C 121.75 265.476562 120.414062 258.785156 120.984375 256.875 C 121.367188 255.917969 122.707031 254.769531 123.28125 254.960938 C 124.425781 255.34375 125 264.332031 124.234375 266.242188 C 123.855469 267.007812 123.28125 267.773438 122.707031 267.773438 C 121.941406 267.773438 120.984375 265.859375 120.222656 264.332031 C 119.074219 261.84375 116.78125 254.960938 117.734375 254.195312 C 118.308594 253.8125 120.222656 254.386719 120.792969 255.34375 C 121.941406 257.066406 122.132812 264.710938 120.792969 266.242188 C 120.03125 267.199219 118.117188 267.582031 117.160156 267.007812 C 115.25 265.859375 113.148438 255.917969 114.101562 253.621094 C 114.484375 252.476562 116.207031 251.519531 116.78125 251.902344 C 118.117188 252.476562 118.691406 263.183594 117.542969 265.09375 C 116.96875 266.050781 115.441406 266.242188 114.867188 266.050781 C 114.101562 265.859375 113.910156 264.332031 113.527344 263.375 C 112.957031 262.035156 111.617188 259.742188 112 258.785156 C 112.382812 258.019531 113.910156 257.066406 114.484375 257.445312 C 115.441406 257.828125 116.398438 262.800781 115.632812 263.757812 C 115.058594 264.519531 112.957031 264.710938 112.382812 264.140625 C 111.425781 263.183594 111.808594 256.875 112.765625 255.535156 C 113.335938 254.769531 114.292969 254.386719 114.867188 254.578125 C 115.441406 254.769531 116.207031 257.066406 116.207031 257.066406 " clip-rule="nonzero"/></clipPath><clipPath id="219e25cca2"><path d="M 27.304688 97.953125 L 68.808594 97.953125 L 68.808594 104 L 27.304688 104 Z M 27.304688 97.953125 " clip-rule="nonzero"/></clipPath><clipPath id="3e45408c05"><path d="M 29.398438 98.558594 C 67.640625 98.367188 68.214844 98.75 68.40625 99.320312 C 68.597656 99.894531 67.449219 101.617188 66.875 101.808594 C 66.300781 102 64.582031 100.851562 64.582031 100.277344 C 64.582031 99.703125 66.300781 97.984375 66.875 97.984375 C 67.449219 97.984375 68.597656 99.894531 68.40625 100.46875 C 67.832031 101.617188 63.433594 102 59.609375 102.382812 C 52.535156 103.144531 32.648438 104.292969 29.015625 102.382812 C 27.871094 101.808594 27.488281 100.851562 27.488281 100.277344 C 27.488281 99.703125 29.398438 98.558594 29.398438 98.558594 " clip-rule="nonzero"/></clipPath><clipPath id="35b666429c"><path d="M 27.074219 255 L 31.339844 255 L 31.339844 259.933594 L 27.074219 259.933594 Z M 27.074219 255 " clip-rule="nonzero"/></clipPath><clipPath id="e0bd94511f"><path d="M 31.121094 257.636719 C 27.871094 259.359375 27.679688 256.875 28.0625 256.492188 C 28.445312 256.109375 31.3125 257.445312 31.3125 258.019531 C 31.3125 258.59375 29.398438 259.933594 28.636719 259.742188 C 28.0625 259.550781 27.105469 258.210938 27.105469 257.445312 C 27.105469 256.683594 28.0625 255.34375 28.636719 255.152344 C 29.207031 254.960938 30.929688 255.917969 30.929688 255.917969 " clip-rule="nonzero"/></clipPath><clipPath id="5ed827eb77"><path d="M 26 254.558594 L 29.816406 254.558594 L 29.816406 258 L 26 258 Z M 26 254.558594 " clip-rule="nonzero"/></clipPath><clipPath id="d7faf0bec2"><path d="M 29.78125 255.917969 C 28.253906 258.402344 26.722656 258.019531 26.339844 257.445312 C 25.957031 256.875 26.339844 255.34375 26.914062 254.960938 C 27.488281 254.578125 29.398438 255.152344 29.398438 255.152344 " clip-rule="nonzero"/></clipPath><clipPath id="6bf478a325"><path d="M 26 256.085938 L 29.816406 256.085938 L 29.816406 260 L 26 260 Z M 26 256.085938 " clip-rule="nonzero"/></clipPath><clipPath id="698dc8d1fd"><path d="M 29.78125 257.445312 C 28.253906 259.933594 26.722656 259.550781 26.339844 258.976562 C 25.957031 258.402344 26.339844 256.875 26.914062 256.492188 C 27.488281 256.109375 29.398438 256.683594 29.398438 256.683594 " clip-rule="nonzero"/></clipPath><clipPath id="4b1fbfd552"><path d="M 65.136719 257.425781 L 69 257.425781 L 69 261 L 65.136719 261 Z M 65.136719 257.425781 " clip-rule="nonzero"/></clipPath><clipPath id="4787564161"><path d="M 68.980469 258.785156 C 67.257812 261.269531 65.917969 260.886719 65.535156 260.316406 C 65.15625 259.742188 65.347656 258.210938 65.917969 257.828125 C 66.492188 257.445312 68.40625 258.019531 68.40625 258.019531 " clip-rule="nonzero"/></clipPath><clipPath id="efbf0357a5"><path d="M 65 255.152344 L 69.199219 255.152344 L 69.199219 260 L 65 260 Z M 65 255.152344 " clip-rule="nonzero"/></clipPath><clipPath id="08cff9cabe"><path d="M 69.167969 257.636719 C 66.492188 259.933594 65.347656 257.636719 65.535156 257.066406 C 65.726562 256.492188 68.40625 256.300781 68.789062 256.875 C 69.167969 257.445312 68.40625 259.742188 67.832031 259.933594 C 67.257812 260.125 65.347656 258.785156 65.15625 258.019531 C 64.964844 257.253906 65.917969 255.535156 66.683594 255.34375 C 67.257812 255.152344 68.789062 256.300781 68.789062 256.300781 " clip-rule="nonzero"/></clipPath></defs><g clip-path="url(#ee9659bc3b)"><path fill="#000000" d="M 26.339844 99.882812 L 69.023438 99.882812 L 69.023438 257.960938 L 26.339844 257.960938 Z M 26.339844 99.882812 " fill-opacity="1" fill-rule="nonzero"/></g><g clip-path="url(#810fe26900)"><path fill="#000000" d="M 111.777344 142.566406 L 154.457031 142.566406 L 154.457031 257.960938 L 111.777344 257.960938 Z M 111.777344 142.566406 " fill-opacity="1" fill-rule="nonzero"/></g><g clip-path="url(#1bf3648c4f)"><path fill="#000000" d="M 124.996094 142.5625 L 124.996094 185.246094 L 56.808594 185.246094 L 56.808594 142.5625 Z M 124.996094 142.5625 " fill-opacity="1" fill-rule="nonzero"/></g><g fill="#000000" fill-opacity="1"><g transform="translate(167.704417, 228.996157)"><g><path d="M 28.453125 -38.140625 L 28.453125 -30.890625 L 12.03125 -30.890625 L 12.03125 0 L 4.078125 0 L 4.078125 -71.375 L 32.421875 -71.375 L 32.421875 -64.140625 L 12.03125 -64.140625 L 12.03125 -38.140625 Z M 28.453125 -38.140625 "/></g></g></g><g fill="#000000" fill-opacity="1"><g transform="translate(202.372427, 228.996157)"><g><path d="M 19.984375 -71.375 C 25.628906 -71.375 29.691406 -69.976562 32.171875 -67.1875 C 34.648438 -64.40625 35.890625 -60.363281 35.890625 -55.0625 L 35.890625 -49.25 C 35.890625 -45.3125 35.175781 -42.117188 33.75 -39.671875 C 32.320312 -37.222656 30.078125 -35.519531 27.015625 -34.5625 C 30.285156 -33.613281 32.597656 -31.863281 33.953125 -29.3125 C 35.316406 -26.769531 36 -23.5625 36 -19.6875 L 36 -8.5625 C 36 -7 36.066406 -5.484375 36.203125 -4.015625 C 36.335938 -2.554688 36.742188 -1.21875 37.421875 0 L 29.359375 0 C 28.890625 -1.019531 28.550781 -2.125 28.34375 -3.3125 C 28.144531 -4.5 28.046875 -6.285156 28.046875 -8.671875 L 28.046875 -19.890625 C 28.046875 -23.898438 27.144531 -26.664062 25.34375 -28.1875 C 23.539062 -29.71875 20.972656 -30.484375 17.640625 -30.484375 L 12.03125 -30.484375 L 12.03125 0 L 4.078125 0 L 4.078125 -71.375 Z M 17.953125 -37.734375 C 21.140625 -37.734375 23.617188 -38.394531 25.390625 -39.71875 C 27.160156 -41.039062 28.046875 -43.640625 28.046875 -47.515625 L 28.046875 -54.34375 C 28.046875 -57.613281 27.414062 -60.0625 26.15625 -61.6875 C 24.894531 -63.320312 22.769531 -64.140625 19.78125 -64.140625 L 12.03125 -64.140625 L 12.03125 -37.734375 Z M 17.953125 -37.734375 "/></g></g></g><g fill="#000000" fill-opacity="1"><g transform="translate(242.546535, 228.996157)"><g><path d="M 3.46875 -54.140625 C 3.46875 -59.648438 4.804688 -64.019531 7.484375 -67.25 C 10.171875 -70.476562 14.269531 -72.09375 19.78125 -72.09375 C 25.289062 -72.09375 29.40625 -70.476562 32.125 -67.25 C 34.84375 -64.019531 36.203125 -59.648438 36.203125 -54.140625 L 36.203125 -17.234375 C 36.203125 -11.796875 34.84375 -7.441406 32.125 -4.171875 C 29.40625 -0.910156 25.289062 0.71875 19.78125 0.71875 C 14.269531 0.71875 10.171875 -0.910156 7.484375 -4.171875 C 4.804688 -7.441406 3.46875 -11.796875 3.46875 -17.234375 Z M 11.3125 -16.828125 C 11.3125 -13.566406 12.007812 -11.035156 13.40625 -9.234375 C 14.800781 -7.429688 16.925781 -6.53125 19.78125 -6.53125 C 22.707031 -6.53125 24.847656 -7.429688 26.203125 -9.234375 C 27.566406 -11.035156 28.25 -13.566406 28.25 -16.828125 L 28.25 -54.546875 C 28.25 -57.816406 27.566406 -60.351562 26.203125 -62.15625 C 24.847656 -63.957031 22.707031 -64.859375 19.78125 -64.859375 C 16.925781 -64.859375 14.800781 -63.957031 13.40625 -62.15625 C 12.007812 -60.351562 11.3125 -57.816406 11.3125 -54.546875 Z M 11.3125 -16.828125 "/></g></g></g><g fill="#000000" fill-opacity="1"><g transform="translate(282.210835, 228.996157)"><g><path d="M 11.109375 0 L 3.984375 0 L 3.984375 -71.375 L 14.078125 -71.375 L 30.59375 -19.78125 L 30.59375 -71.375 L 37.625 -71.375 L 37.625 0 L 29.359375 0 L 11.109375 -57.71875 Z M 11.109375 0 "/></g></g></g><g fill="#000000" fill-opacity="1"><g transform="translate(323.914424, 228.996157)"><g><path d="M 14.484375 0 L 14.484375 -64.140625 L 1.328125 -64.140625 L 1.328125 -71.375 L 35.59375 -71.375 L 35.59375 -64.140625 L 22.4375 -64.140625 L 22.4375 0 Z M 14.484375 0 "/></g></g></g><g clip-path="url(#e9978fe61d)"><path fill="#000000" d="M 26.339844 99.164062 L 69.085938 57.246094 L 69.085938 99.164062 Z M 26.339844 99.164062 " fill-opacity="1" fill-rule="nonzero"/></g><g clip-path="url(#c416be777e)"><path fill="#000000" d="M 112.492188 57.199219 L 154.40625 99.941406 L 112.492188 99.941406 Z M 112.492188 57.199219 " fill-opacity="1" fill-rule="nonzero"/></g><g clip-path="url(#6b31484659)"><path fill="#000000" d="M 68.578125 300.636719 L 26.660156 257.894531 L 68.578125 257.894531 Z M 68.578125 300.636719 " fill-opacity="1" fill-rule="nonzero"/></g><g clip-path="url(#27c4139895)"><path fill="#000000" d="M 154.726562 259.121094 L 111.984375 301.039062 L 111.984375 259.121094 Z M 154.726562 259.121094 " fill-opacity="1" fill-rule="nonzero"/></g><g clip-path="url(#68b38b90b0)"><g clip-path="url(#22516f3648)"><path fill="#000000" d="M 36.28125 246.164062 L 62.859375 246.164062 L 62.859375 277.523438 L 36.28125 277.523438 Z M 36.28125 246.164062 " fill-opacity="1" fill-rule="nonzero"/></g></g><g clip-path="url(#b308dcf6b6)"><g clip-path="url(#1a1ca4b399)"><path fill="#000000" d="M 36.28125 242.34375 L 60.183594 242.34375 L 60.183594 269.875 L 36.28125 269.875 Z M 36.28125 242.34375 " fill-opacity="1" fill-rule="nonzero"/></g></g><g clip-path="url(#0fd0552b26)"><g clip-path="url(#18bca4e40d)"><path fill="#000000" d="M 40.871094 241.003906 L 65.535156 241.003906 L 65.535156 273.316406 L 40.871094 273.316406 Z M 40.871094 241.003906 " fill-opacity="1" fill-rule="nonzero"/></g></g><g clip-path="url(#bc866733dc)"><g clip-path="url(#2f98495adf)"><path fill="#000000" d="M 45.078125 240.8125 L 68.214844 240.8125 L 68.214844 272.359375 L 45.078125 272.359375 Z M 45.078125 240.8125 " fill-opacity="1" fill-rule="nonzero"/></g></g><g clip-path="url(#d8951c7498)"><g clip-path="url(#6189c7d3f1)"><path fill="#000000" d="M 21.941406 246.929688 L 75.863281 246.929688 L 75.863281 270.066406 L 21.941406 270.066406 Z M 21.941406 246.929688 " fill-opacity="1" fill-rule="nonzero"/></g></g><g clip-path="url(#d04e929eb3)"><g clip-path="url(#7fb2d373d9)"><path fill="#000000" d="M 104.351562 241.578125 L 161.902344 241.578125 L 161.902344 277.140625 L 104.351562 277.140625 Z M 104.351562 241.578125 " fill-opacity="1" fill-rule="nonzero"/></g></g><g clip-path="url(#219e25cca2)"><g clip-path="url(#3e45408c05)"><path fill="#000000" d="M 19.839844 90.335938 L 76.054688 90.335938 L 76.054688 110.03125 L 19.839844 110.03125 Z M 19.839844 90.335938 " fill-opacity="1" fill-rule="nonzero"/></g></g><g clip-path="url(#35b666429c)"><g clip-path="url(#e0bd94511f)"><path fill="#000000" d="M 19.457031 247.503906 L 38.960938 247.503906 L 38.960938 267.390625 L 19.457031 267.390625 Z M 19.457031 247.503906 " fill-opacity="1" fill-rule="nonzero"/></g></g><g clip-path="url(#5ed827eb77)"><g clip-path="url(#d7faf0bec2)"><path fill="#000000" d="M 18.691406 247.3125 L 37.429688 247.3125 L 37.429688 265.859375 L 18.691406 265.859375 Z M 18.691406 247.3125 " fill-opacity="1" fill-rule="nonzero"/></g></g><g clip-path="url(#6bf478a325)"><g clip-path="url(#698dc8d1fd)"><path fill="#000000" d="M 18.691406 248.84375 L 37.429688 248.84375 L 37.429688 267.390625 L 18.691406 267.390625 Z M 18.691406 248.84375 " fill-opacity="1" fill-rule="nonzero"/></g></g><g clip-path="url(#4b1fbfd552)"><g clip-path="url(#4787564161)"><path fill="#000000" d="M 57.890625 250.179688 L 76.625 250.179688 L 76.625 268.726562 L 57.890625 268.726562 Z M 57.890625 250.179688 " fill-opacity="1" fill-rule="nonzero"/></g></g><g clip-path="url(#efbf0357a5)"><g clip-path="url(#08cff9cabe)"><path fill="#000000" d="M 57.507812 247.695312 L 76.816406 247.695312 L 76.816406 267.582031 L 57.507812 267.582031 Z M 57.507812 247.695312 " fill-opacity="1" fill-rule="nonzero"/></g></g></svg>